<svg xmlns="http://www.w3.org/2000/svg" viewBox="0 0 100 100" width="100" height="100">
  <path d="M25,45 Q10,45 10,55 Q10,65 20,65 L70,65 Q85,65 85,55 Q85,45 70,45 Q70,30 55,30 Q40,30 40,45 Q35,45 25,45" fill="#9CA3AF" stroke="#6B7280" stroke-width="1" />
  <g stroke="#60A5FA" stroke-width="1.5" stroke-linecap="round">
    <line x1="30" y1="75" x2="28" y2="80" />
    <line x1="40" y1="75" x2="38" y2="80" />
    <line x1="50" y1="75" x2="48" y2="80" />
    <line x1="60" y1="75" x2="58" y2="80" />
    <line x1="70" y1="75" x2="68" y2="80" />
    <line x1="35" y1="85" x2="33" y2="90" />
    <line x1="45" y1="85" x2="43" y2="90" />
    <line x1="55" y1="85" x2="53" y2="90" />
    <line x1="65" y1="85" x2="63" y2="90" />
  </g>
</svg>
