<svg xmlns="http://www.w3.org/2000/svg" viewBox="0 0 100 100" width="100" height="100">
  <path d="M25,45 Q10,45 10,55 Q10,65 20,65 L70,65 Q85,65 85,55 Q85,45 70,45 Q70,30 55,30 Q40,30 40,45 Q35,45 25,45" fill="#9CA3AF" stroke="#6B7280" stroke-width="1" />
  <g fill="#F9FAFB">
    <circle cx="30" cy="75" r="3" />
    <circle cx="40" cy="80" r="3" />
    <circle cx="50" cy="75" r="3" />
    <circle cx="60" cy="80" r="3" />
    <circle cx="70" cy="75" r="3" />
    <circle cx="35" cy="85" r="3" />
    <circle cx="45" cy="90" r="3" />
    <circle cx="55" cy="85" r="3" />
    <circle cx="65" cy="90" r="3" />
  </g>
</svg>
